<svg version="1.1" xmlns="http://www.w3.org/2000/svg" viewBox="0 0 2582.8217127764397 783.1461700325226" width="7748.4651383293185" height="2349.438510097568" filter="invert(93%) hue-rotate(180deg)">
  <!-- svg-source:excalidraw -->
  
  <defs>
    <style class="style-fonts">
      @font-face {
        font-family: "Virgil";
        src: url("https://excalidraw.com/Virgil.woff2");
      }
      @font-face {
        font-family: "Cascadia";
        src: url("https://excalidraw.com/Cascadia.woff2");
      }
    </style>
  </defs>
  <g stroke-opacity="0.1" fill-opacity="0.1" stroke-linecap="round" transform="translate(10 10) rotate(0 912.5320051735173 381.53231569437787)"><path d="M32 0 L1793.06 0 L1800.56 0.5 L1807.06 2 L1812.56 4.5 L1817.06 8 L1820.56 12.5 L1823.06 18 L1824.56 24.5 L1825.06 32 L1825.06 731.06 L1824.56 738.56 L1823.06 745.06 L1820.56 750.56 L1817.06 755.06 L1812.56 758.56 L1807.06 761.06 L1800.56 762.56 L1793.06 763.06 L32 763.06 L24.5 762.56 L18 761.06 L12.5 758.56 L8 755.06 L4.5 750.56 L2 745.06 L0.5 738.56 L0 731.06 L0 32 L0.5 24.5 L2 18 L4.5 12.5 L8 8 L12.5 4.5 L18 2 L24.5 0.5 L32 0" stroke="none" stroke-width="0" fill="#00695c"></path><path d="M32 0 M32 0 C560.76 0, 1089.52 0, 1793.06 0 M32 0 C632.71 0, 1233.41 0, 1793.06 0 M1793.06 0 C1814.4 0, 1825.06 10.67, 1825.06 32 M1793.06 0 C1814.4 0, 1825.06 10.67, 1825.06 32 M1825.06 32 C1825.06 296.86, 1825.06 561.71, 1825.06 731.06 M1825.06 32 C1825.06 268.35, 1825.06 504.7, 1825.06 731.06 M1825.06 731.06 C1825.06 752.4, 1814.4 763.06, 1793.06 763.06 M1825.06 731.06 C1825.06 752.4, 1814.4 763.06, 1793.06 763.06 M1793.06 763.06 C1215.09 763.06, 637.12 763.06, 32 763.06 M1793.06 763.06 C1319.21 763.06, 845.35 763.06, 32 763.06 M32 763.06 C10.67 763.06, 0 752.4, 0 731.06 M32 763.06 C10.67 763.06, 0 752.4, 0 731.06 M0 731.06 C0 499.12, 0 267.17, 0 32 M0 731.06 C0 511.56, 0 292.07, 0 32 M0 32 C0 10.67, 10.67 0, 32 0 M0 32 C0 10.67, 10.67 0, 32 0" stroke="#00695c" stroke-width="4" fill="none"></path></g><g transform="translate(551.5539097684091 297.38544457965213) rotate(0 378.5 86)"><text x="0" y="138" font-family="Cascadia, Segoe UI Emoji" font-size="143.09538744165445px" fill="#00695c" text-anchor="start" style="white-space: pre;" direction="ltr">node-shop</text></g><g stroke-opacity="0.1" fill-opacity="0.1" stroke-linecap="round" transform="translate(1862.5192157411734 10.081538643766862) rotate(0 355.1512485176331 381.53231569437787)"><path d="M32 0 L678.3 0 L685.8 0.5 L692.3 2 L697.8 4.5 L702.3 8 L705.8 12.5 L708.3 18 L709.8 24.5 L710.3 32 L710.3 731.06 L709.8 738.56 L708.3 745.06 L705.8 750.56 L702.3 755.06 L697.8 758.56 L692.3 761.06 L685.8 762.56 L678.3 763.06 L32 763.06 L24.5 762.56 L18 761.06 L12.5 758.56 L8 755.06 L4.5 750.56 L2 745.06 L0.5 738.56 L0 731.06 L0 32 L0.5 24.5 L2 18 L4.5 12.5 L8 8 L12.5 4.5 L18 2 L24.5 0.5 L32 0" stroke="none" stroke-width="0" fill="#00695c"></path><path d="M32 0 M32 0 C236.4 0, 440.81 0, 678.3 0 M32 0 C238.37 0, 444.75 0, 678.3 0 M678.3 0 C699.64 0, 710.3 10.67, 710.3 32 M678.3 0 C699.64 0, 710.3 10.67, 710.3 32 M710.3 32 C710.3 304.17, 710.3 576.34, 710.3 731.06 M710.3 32 C710.3 280.38, 710.3 528.77, 710.3 731.06 M710.3 731.06 C710.3 752.4, 699.64 763.06, 678.3 763.06 M710.3 731.06 C710.3 752.4, 699.64 763.06, 678.3 763.06 M678.3 763.06 C501.46 763.06, 324.61 763.06, 32 763.06 M678.3 763.06 C509.41 763.06, 340.51 763.06, 32 763.06 M32 763.06 C10.67 763.06, 0 752.4, 0 731.06 M32 763.06 C10.67 763.06, 0 752.4, 0 731.06 M0 731.06 C0 460.46, 0 189.85, 0 32 M0 731.06 C0 568.22, 0 405.38, 0 32 M0 32 C0 10.67, 10.67 0, 32 0 M0 32 C0 10.67, 10.67 0, 32 0" stroke="#00695c" stroke-width="4" fill="none"></path></g><g transform="translate(1950.3790039968985 127.2271047383731) rotate(0 270 30.5)"><text x="0" y="50" font-family="Cascadia, Segoe UI Emoji" font-size="51.02205945236581px" fill="#00695c" text-anchor="start" style="white-space: pre;" direction="ltr">Complexity: Simple</text></g><g transform="translate(2116.635392553802 257.1097972704825) rotate(0 102.76026594309042 208.27919674371296)"><text x="102.76026594309026" y="47.50834192677513" font-family="Cascadia, Segoe UI Emoji" font-size="49.655967435587186px" fill="#00695c" text-anchor="middle" style="white-space: pre;" direction="ltr">MongoDB</text><text x="102.76026594309026" y="107.01668385355026" font-family="Cascadia, Segoe UI Emoji" font-size="49.655967435587186px" fill="#00695c" text-anchor="middle" style="white-space: pre;" direction="ltr">·</text><text x="102.76026594309026" y="166.5250257803254" font-family="Cascadia, Segoe UI Emoji" font-size="49.655967435587186px" fill="#00695c" text-anchor="middle" style="white-space: pre;" direction="ltr">EJS</text><text x="102.76026594309026" y="226.03336770710052" font-family="Cascadia, Segoe UI Emoji" font-size="49.655967435587186px" fill="#00695c" text-anchor="middle" style="white-space: pre;" direction="ltr">·</text><text x="102.76026594309026" y="285.54170963387566" font-family="Cascadia, Segoe UI Emoji" font-size="49.655967435587186px" fill="#00695c" text-anchor="middle" style="white-space: pre;" direction="ltr">Express</text><text x="102.76026594309026" y="345.0500515606508" font-family="Cascadia, Segoe UI Emoji" font-size="49.655967435587186px" fill="#00695c" text-anchor="middle" style="white-space: pre;" direction="ltr">·</text><text x="102.76026594309026" y="404.5583934874259" font-family="Cascadia, Segoe UI Emoji" font-size="49.655967435587186px" fill="#00695c" text-anchor="middle" style="white-space: pre;" direction="ltr">NodeJS</text></g><g stroke-linecap="round"><g stroke-opacity="0.5" fill-opacity="0.5" transform="translate(1941.5217252515636 217.30637601476178) rotate(0 278.97002525538664 0)"><path d="M0 0 C92.99 0, 464.95 0, 557.94 0 M0 0 C92.99 0, 464.95 0, 557.94 0" stroke="#00695c" stroke-width="4" fill="none"></path></g></g><mask></mask></svg>